# xmcd CD database file
#
# Track frame offsets:
#	150
#	19502
#	39904
#	56631
#	88958
#	107410
#	152037
#	175064
#	189991
#	206793
#	223745
#	247147
#	262749
#	294101
#
# Disc length: 3957 seconds
#
# Revision: 3
# Processed by: cddbd v1.5.2PL0 Copyright (c) Steve Scherf et al.
# Submitted via: CDex 1.51
#
DISCID=bb0f730e
DTITLE=Hot Club De Norvège - Hot Shots
DYEAR=1997
DGENRE=Jazz
TTITLE0=Swing for Ninine
TTITLE1=Dans le regard de Laura
TTITLE2=Les yeux noirs
TTITLE3=Den ensomme ulv
TTITLE4=Ombre
TTITLE5=Manoir de mes reves
TTITLE6=Nuits de Saint-Germain-Des-Pres
TTITLE7=Valse de Lacheben/Mintch Valse
TTITLE8=Salla
TTITLE9=Moppin' the bride
TTITLE10=Cool trane
TTITLE11=In memory of Danny Gatton
TTITLE12=Swing 42
TTITLE13=CD-ROM
EXTD=YEAR: 1997
EXTT0=
EXTT1=
EXTT2=
EXTT3=
EXTT4=
EXTT5=
EXTT6=
EXTT7=
EXTT8=
EXTT9=
EXTT10=
EXTT11=
EXTT12=
EXTT13=
PLAYORDER=
